<svg width="45" height="37" viewBox="0 0 45 37" fill="none"
    xmlns="http://www.w3.org/2000/svg">
    <path d="M29.4503 4.38294L32.3408 10.239C32.7303 11.0489 33.7759 11.8173 34.6574 11.9834L39.885 12.8556C43.2266 13.4163 44.0056 15.8667 41.6071 18.3171L37.5275 22.4496C36.851 23.1349 36.4614 24.4847 36.687 25.4607L37.8555 30.5693C38.778 34.5979 36.646 36.1762 33.1404 34.058L28.2407 31.1092C27.3592 30.5693 25.8832 30.5693 25.0016 31.1092L20.102 34.058C16.5964 36.1554 14.4643 34.5979 15.3869 30.5693L16.5554 25.4607C16.7809 24.5055 16.3914 23.1557 15.7149 22.4496L11.6353 18.3171C9.2367 15.8875 10.0157 13.437 13.3573 12.8556L18.585 11.9834C19.4665 11.838 20.512 11.0489 20.9015 10.239L23.7921 4.38294C25.3296 1.20569 27.8717 1.20569 29.4503 4.38294ZM14.3003 3.94684H2H14.3003ZM8.15017 33.0197H2H8.15017ZM4.05006 18.4833H2H4.05006Z" fill="#4437DE"/>
    <path d="M14.3003 3.94684H2M8.15017 33.0197H2M4.05006 18.4833H2M29.4503 4.38294L32.3408 10.239C32.7303 11.0489 33.7759 11.8173 34.6574 11.9834L39.885 12.8556C43.2266 13.4163 44.0056 15.8667 41.6071 18.3171L37.5275 22.4496C36.851 23.1349 36.4614 24.4847 36.6869 25.4607L37.8555 30.5693C38.778 34.5979 36.6459 36.1762 33.1404 34.058L28.2407 31.1092C27.3592 30.5693 25.8832 30.5693 25.0016 31.1092L20.102 34.058C16.5964 36.1554 14.4643 34.5979 15.3869 30.5693L16.5554 25.4607C16.7809 24.5055 16.3914 23.1557 15.7149 22.4496L11.6353 18.3171C9.2367 15.8875 10.0157 13.437 13.3573 12.8556L18.585 11.9834C19.4665 11.838 20.512 11.0489 20.9015 10.239L23.7921 4.38294C25.3296 1.20569 27.8717 1.20569 29.4503 4.38294Z" stroke="#4437DE" stroke-width="3" stroke-linecap="round" stroke-linejoin="round"/>
</svg>
