<svg width="42" height="40" viewBox="0 0 42 40" fill="none" xmlns="http://www.w3.org/2000/svg">
<path d="M31.1947 33.2743H22.8761L13.6217 39.4301C13.3094 39.6383 12.9464 39.7578 12.5715 39.7759C12.1965 39.7939 11.8238 39.7099 11.4929 39.5327C11.162 39.3555 10.8854 39.0918 10.6926 38.7697C10.4998 38.4477 10.3981 38.0793 10.3982 37.704V33.2743C4.15929 33.2743 0 29.115 0 22.8761V10.3982C0 4.15929 4.15929 0 10.3982 0H31.1947C37.4336 0 41.5929 4.15929 41.5929 10.3982V22.8761C41.5929 29.115 37.4336 33.2743 31.1947 33.2743Z" fill="#4437DE"/>
<path d="M20.796 18.5712V18.1344C20.796 16.7203 21.6694 15.9716 22.5429 15.3685C23.3955 14.7862 24.2482 14.0375 24.2482 12.665C24.2482 10.7517 22.7092 9.21277 20.796 9.21277C18.8827 9.21277 17.3438 10.7517 17.3438 12.665M20.7856 23.5415H20.8064" stroke="white" stroke-width="3" stroke-linecap="round" stroke-linejoin="round"/>
</svg>
