<svg width="48" height="44" viewBox="0 0 48 44" fill="none"
    xmlns="http://www.w3.org/2000/svg">
    <path d="M18.5485 24.6572H25.0875V39.6039C25.0875 41.8044 27.8808 42.8423 29.3621 41.1816L45.3816 23.3286C46.7783 21.7716 45.6567 19.3428 43.5405 19.3428H37.0015V4.39613C37.0015 2.19565 34.2082 1.15769 32.7269 2.81843L16.7074 20.6714C15.3319 22.2284 16.4535 24.6572 18.5485 24.6572ZM16.8132 5.39258H2H16.8132ZM14.6971 38.6074H2H14.6971ZM8.34853 22H2H8.34853Z" fill="#4437DE"/>
    <path d="M16.8132 5.39258H2M14.6971 38.6074H2M8.34853 22H2M18.5485 24.6572H25.0875V39.6039C25.0875 41.8044 27.8808 42.8423 29.3621 41.1816L45.3816 23.3286C46.7783 21.7716 45.6567 19.3428 43.5405 19.3428H37.0015V4.39613C37.0015 2.19565 34.2082 1.15769 32.7269 2.81843L16.7074 20.6714C15.3319 22.2284 16.4535 24.6572 18.5485 24.6572Z" stroke="#4437DE" stroke-width="3" stroke-miterlimit="10" stroke-linecap="round" stroke-linejoin="round"/>
</svg>
